#!OML:ASF H:\Terrain\Walking\May29\JustinRory\Justin.ASF
:FULLY-SPECIFIED
:DEGREES
1476
root 11.465660479041915 17.794085628742515 10.591415149700598 -170.14304790419163 -104.87020419161678 -36.66934131736528 
lowerback 3.9747699401197605 -2.414155628742515 -8.544178323353293 
upperback 2.0741879640718563 -3.5858714970059875 0.5458286407185629 
thorax 0.5907134850299401 -1.9291765269461076 5.471986107784431 
lowerneck -9.10944474251497 -7.409396886227544 -12.719725508982036 
upperneck 21.886877245508984 -10.354225640718562 6.182235904191617 
head 10.198594011976049 -5.732199281437126 2.998905209580838 
rclavicle 9.253874850299402e-14 -1.6004539520958085e-14 
rhumerus -33.40751017964072 -18.673589820359282 -67.47872994011976 
rradius 31.657667065868264 
rwrist -16.928626946107784 
rhand -16.726535508982035 22.87662335329341 
rfingers 7.12502 
rthumb 9.494051377245508 -6.7784982035928145 
lclavicle 9.253874850299402e-14 -1.6004539520958085e-14 
lhumerus -28.88037005988024 11.746839461077846 73.19661017964071 
lradius 28.513378443113773 
lwrist -6.5587749101796415 
lhand -2.658565928143713 40.54792095808383 
lfingers 7.12502 
lthumb 23.038259880239522 69.15455988023952 
rfemur -28.034732934131736 -4.4235443113772455 17.744171916167666 
rtibia 25.62369880239521 
rfoot -8.618684431137723 -1.7377991017964063 
rtoes -0.03176772455089871 
lfemur -2.015898682634729 -0.4366374850299408 -25.980819161676646 
ltibia 21.888465868263474 
lfoot -15.776974850299402 -7.356055209580839 
ltoes 15.511064251497006 
1477
root 11.46852115768463 17.79369860279441 10.574104111776446 -170.10911576846308 -104.75463512974052 -35.98490818363274 
lowerback 3.979179021956088 -2.416645269461078 -8.561455948103792 
upperback 2.076696746506986 -3.5902911177644707 0.547345131736527 
thorax 0.5929742554890219 -1.9318666067864272 5.4834797604790415 
lowerneck -9.075273461077845 -7.432692475049899 -12.733186646706587 
upperneck 21.879961676646708 -10.40010446506986 6.21651843512974 
head 10.19846886227545 -5.752831596806387 3.007601756487026 
rclavicle 9.237755888223553e-14 -1.6007912175648703e-14 
rhumerus -33.40633293413174 -18.67743373253493 -67.48775568862276 
rradius 31.66522874251497 
rwrist -16.925240119760478 
rhand -16.69886998003992 22.876414770459082 
rfingers 7.12502 
rthumb 9.52073249500998 -6.777317325349301 
lclavicle 9.237755888223553e-14 -1.6007912175648703e-14 
lhumerus -28.86137764471058 11.730681197604792 73.2271996007984 
lradius 28.51218123752495 
lwrist -6.567920199600799 
lhand -2.6450968263473054 40.54437564870259 
lfingers 7.12502 
lthumb 23.051178043912177 69.14934471057884 
rfemur -28.02250459081836 -4.42827375249501 17.706271297405188 
rtibia 25.67631377245509 
rfoot -8.642395708582834 -1.761435329341316 
rtoes -0.012616167664670996 
lfemur -2.045838483033931 -0.40189558882235676 -25.975879640718563 
ltibia 21.916409181636723 
lfoot -15.789055888223553 -7.30139508982036 
ltoes 15.45070610778443 
1478
root 11.471381836327344 17.793311576846307 10.556793073852296 -170.07518363273454 -104.63906606786428 -35.30047504990023 
lowerback 3.9835881037924152 -2.4191349101796407 -8.57873357285429 
upperback 2.079205528942116 -3.594710738522954 0.548861622754491 
thorax 0.5952350259481037 -1.9345566866267465 5.4949734131736525 
lowerneck -9.04110217964072 -7.455988063872255 -12.746647784431136 
upperneck 21.873046107784432 -10.445983289421157 6.250800966067864 
head 10.19834371257485 -5.773463912175649 3.0162983033932136 
rclavicle 9.221636926147705e-14 -1.601128483033932e-14 
rhumerus -33.405155688622756 -18.68127764471058 -67.49678143712575 
rradius 31.67279041916168 
rwrist -16.921853293413175 
rhand -16.671204451097804 22.87620618762475 
rfingers 7.12502 
rthumb 9.54741361277445 -6.776136447105789 
lclavicle 9.221636926147705e-14 -1.601128483033932e-14 
lhumerus -28.842385229540916 11.714522934131738 73.25778902195609 
lradius 28.51098403193613 
lwrist -6.577065489021956 
lhand -2.6316277245508983 40.54083033932135 
lfingers 7.12502 
lthumb 23.064096207584832 69.14412954091816 
rfemur -28.01027624750499 -4.433003193612774 17.668370678642717 
rtibia 25.72892874251497 
rfoot -8.666106986027945 -1.7850715568862268 
rtoes 0.006535389221556276 
lfemur -2.0757782834331326 -0.3671536926147718 -25.970940119760478 
ltibia 21.94435249500998 
lfoot -15.801136926147704 -7.246734970059881 
ltoes 15.390347964071857 
1479
root 11.47424251497006 17.792924550898203 10.539482035928144 -170.041251497006 -104.52349700598802 -34.61604191616769 
lowerback 3.9879971856287426 -2.4216245508982035 -8.59601119760479 
upperback 2.0817143113772456 -3.5991303592814368 0.5503781137724552 
thorax 0.5974957964071856 -1.9372467664670658 5.506467065868263 
lowerneck -9.006930898203594 -7.47928365269461 -12.760108922155688 
upperneck 21.866130538922157 -10.491862113772454 6.285083497005988 
head 10.198218562874251 -5.794096227544911 3.024994850299401 
rclavicle 9.205517964071856e-14 -1.601465748502994e-14 
rhumerus -33.40397844311377 -18.685121556886227 -67.50580718562874 
rradius 31.680352095808384 
rwrist -16.91846646706587 
rhand -16.643538922155688 22.87599760479042 
rfingers 7.12502 
rthumb 9.574094730538922 -6.774955568862276 
lclavicle 9.205517964071856e-14 -1.601465748502994e-14 
lhumerus -28.823392814371257 11.698364670658684 73.28837844311377 
lradius 28.509786826347305 
lwrist -6.586210778443114 
lhand -2.6181586227544913 40.537285029940115 
lfingers 7.12502 
lthumb 23.077014371257487 69.13891437125748 
rfemur -27.998047904191615 -4.437732634730539 17.63047005988024 
rtibia 25.78154371257485 
rfoot -8.689818263473054 -1.8087077844311366 
rtoes 0.025686946107783992 
lfemur -2.1057180838323344 -0.3324117964071869 -25.966000598802395 
ltibia 21.972295808383233 
lfoot -15.813217964071857 -7.192074850299402 
ltoes 15.329989820359282 
1480
root 11.477103193612773 17.7925375249501 10.522170998003991 -170.00731936127744 -104.40792794411178 -33.93160878243515 
lowerback 3.99240626746507 -2.4241141916167663 -8.613288822355289 
upperback 2.0842230938123754 -3.60354998003992 0.5518946047904192 
thorax 0.5997565668662674 -1.9399368463073854 5.517960718562874 
lowerneck -8.972759616766467 -7.502579241516965 -12.773570059880239 
upperneck 21.85921497005988 -10.537740938123752 6.3193660279441115 
head 10.198093413173654 -5.814728542914172 3.0336913972055886 
rclavicle 9.189399001996008e-14 -1.601803013972056e-14 
rhumerus -33.402801197604795 -18.688965469061877 -67.51483293413173 
rradius 31.68791377245509 
rwrist -16.915079640718563 
rhand -16.615873393213572 22.875789021956088 
rfingers 7.12502 
rthumb 9.600775848303392 -6.773774690618763 
lclavicle 9.189399001996008e-14 -1.601803013972056e-14 
lhumerus -28.804400399201597 11.68220640718563 73.31896786427146 
lradius 28.50858962075848 
lwrist -6.595356067864272 
lhand -2.604689520958084 40.533739720558884 
lfingers 7.12502 
lthumb 23.089932534930142 69.13369920159681 
rfemur -27.98581956087824 -4.4424620758483035 17.592569441117764 
rtibia 25.83415868263473 
rfoot -8.713529540918163 -1.8323440119760472 
rtoes 0.04483850299401171 
lfemur -2.135657884231536 -0.29766990019960193 -25.961061077844313 
ltibia 22.000239121756486 
lfoot -15.825299001996008 -7.137414730538923 
ltoes 15.269631676646707 
